<?xml version="1.0" encoding="utf-8"?>
<!-- Generator: Adobe Illustrator 25.2.0, SVG Export Plug-In . SVG Version: 6.00 Build 0)  -->
<svg version="1.1" id="Capa_1" xmlns="http://www.w3.org/2000/svg" xmlns:xlink="http://www.w3.org/1999/xlink" x="0px" y="0px"
	 viewBox="0 0 488.3 514.8" style="enable-background:new 0 0 488.3 514.8;" xml:space="preserve">
<style type="text/css">
	.st0{fill:#010000;}
</style>
<g>
	<path class="st0" d="M284.9,57.1c8.1,3.9,17.2,0.6,21.5-7.9c4.3-8.5,8.4-17.1,12.4-25.7c3.8-8.2,1.6-15.8-5.7-21.1
		c-0.7-0.5-3.1-0.3-1.6-2.4c-4.4,0-8.7,0-13.1,0c0.1,0.1,0.3,0.2,0.4,0.3c0.1,0.1,0.1,0.3,0.1,0.3c-3.8,2.5-7.3,5.2-9.3,9.5
		c-3.8,8.3-8,16.5-11.9,24.8C273.6,43.8,276.7,53.3,284.9,57.1z"/>
	<path class="st0" d="M488.1,96.6c-0.1-23.3-17-40.1-40.3-40.6c-10.7-0.2-21.4-0.1-32.2,0c-2.2,0-4.3,0.2-6.4,1
		c-7,2.7-11.1,9.5-10.2,17.2c0.8,7,6.6,13.1,14,13.5c10.4,0.5,20.8,0.3,31.1,0.3c9.7,0,12,2.3,12,11.8c0,75.6-0.1,151.1,0.1,226.7
		c0,4.5-1.1,5.5-5.5,5.5c-54.8-0.2-109.6-0.1-164.3-0.1c-2,0-4,0.1-6,0.2c-2,0-4-0.1-6-0.1c-78.3,0-156.7,0-235,0c-7,0-7,0-7-7.3
		c0-66.1,0-132.3-0.1-198.4c0-2.2-0.1-4.3-0.2-6.5c0.1-4,0.2-8,0.2-12c0.1-13.5,6-19.5,19.6-19.5c25.3,0,50.5,0,75.8,0
		c3.2,0,6.4,0,9.4-1.2c6.9-2.7,11.3-10.2,10.1-17.2c-1.3-7.9-7.4-13.5-15.6-13.7c-13.7-0.3-27.4-0.2-41.2-0.1
		c-15.6,0.1-31.1-0.4-46.7,0.5C23.7,57.4,4.4,75,1.8,93.4c-1.6,4.3-1.7,8.8-1.7,13.3C0,192.5,0,278.3,0,364c0,4.4,0.3,8.7,1.3,13
		c5.3,22.8,24.6,38.1,48.4,38.2c39.5,0.1,79.1,0,118.6,0c2.2,0,4.6-0.7,4.6,3.2c0.2,20.9-3.1,41.2-10.5,60.8c-1,2.6-2.4,3.5-5.2,3.4
		c-10.9-0.2-21.8-0.1-32.7-0.1c-7.7,0.1-14,4.6-16,11.4c-2.1,7,0.6,13.8,7,18.4c0.8,0.5,2.9,0.3,1.8,2.4c84.5,0,168.9,0,253.4,0
		c-0.1-0.1-0.3-0.2-0.4-0.3c-0.1-0.1-0.2-0.3-0.2-0.3c0.5-0.5,0.9-0.9,1.4-1.3c7.4-5.3,10.1-11.7,7.9-18.8
		c-2.2-7.2-8.6-11.4-17.5-11.4c-10.2,0-20.4-0.1-30.6,0.1c-3.2,0.1-4.8-0.9-5.9-3.9c-7.3-19.4-11.6-39.2-11.2-60
		c0.1-3.4,1.5-3.7,4.2-3.6c12.7,0.1,25.4-0.1,38.2-0.1c27.1,0.1,54.3,0,81.4,0.2c27.2,0.2,50-20.7,50.1-49.2
		C488.3,276.2,488.3,186.4,488.1,96.6z M195.6,482.4c4.3-14.9,7.9-29.7,8.8-45c0.3-6.2,0.6-12.4,0.5-18.5c0-2.9,0.8-3.7,3.6-3.7
		c23.4,0.1,46.9,0.1,70.3,0c1.9,0,3.6-0.2,3.5,2.7c-0.6,21.9,3.2,43.2,10.1,64.5C259.9,482.4,228,482.4,195.6,482.4z M455.8,369.1
		c-1.8,8.6-8.3,13.8-17.7,13.8c-34.1,0-68.3,0-102.4,0c-2,0-4,0.1-6,0.2c0,1.8,0.9,3.1,2,4.3c-1.1-1.2-2-2.5-2-4.3c-2,0-4-0.1-6-0.1
		c-90.7,0-181.5,0-272.2-0.1c-10.2,0-16.6-4.7-18.6-13.3c-1-4.2-0.5-5.8,4.5-5.8c88.4,0.1,176.8,0.1,265.2,0.1c2,0,4-0.1,6-0.1
		c20.1,0.1,40.2,0.2,60.2,0.2c27.6,0,55.2,0.1,82.9-0.1C456,363.8,456.6,365.4,455.8,369.1z"/>
	<path class="st0" d="M104.2,158.7c-23.4,13.5-31.4,41.6-17.9,63.9c5.8,9.6,12.1,18.9,18.8,27.8c13.6,18,37.9,22.7,57.8,12.2
		c8-4.2,14.7-10.3,22.9-14.1c14.5,12.6,29,25.3,43.6,37.8c3.7,3.2,8.4,4,13.3,2.7c6.1-1.7,10.2-5.6,11.7-11.9
		c1.6-6.5-0.5-11.9-5.4-16.2c-10.8-9.5-21.7-18.9-32.7-28.2c-2.3-2-3.1-3.1,0.3-4.8c3.4-1.6,6.4-4,9.8-5.7
		c28.5-14.4,58.7-22.2,90.6-22.9c6.9-0.2,12.4-2.5,15.7-8.8c3.3-6.4,1.9-12.2-2-17.9c-29.6-43.5-59.1-87-88.6-130.5
		c-3.9-5.7-8.7-9.3-15.8-8.7c-7.3,0.6-11.6,5-14.4,11.6c-15.5,36.5-39.8,65.9-72,88.9C128.1,142.3,116.1,150.4,104.2,158.7z
		 M175.6,146.6c14-12,26.7-25.1,37.5-40.1c5.7-7.9,11-16.1,16.4-24.3c1.7,0.6,2.2,1.9,2.9,3c18.1,26.6,36,53.2,54.2,79.7
		c2.6,3.8,2,4.5-2.4,5.2c-26.5,4-51.5,12.7-75.1,25.3c-3.2,1.7-4.7,1.4-6.7-1.6c-9-13.7-18.3-27.2-27.6-40.7
		C172.9,150.3,173,148.9,175.6,146.6z M148.2,171c9.2,13.7,18.4,27.3,27.8,40.9c1.3,2,1.2,3.1-0.8,4.4c-3.6,2.3-7.1,4.9-10.6,7.4
		c-4.9,3.2-9.7,6.5-14.6,9.7c-7.7,4.9-15.3,3.5-20.5-4c-5-7.1-9.9-14.3-14.6-21.6c-4.8-7.4-3.3-15.1,3.7-20.3
		c2.9-2.2,5.9-4.2,8.8-6.2c0,0,0,0,0,0c5.5-3.7,11.2-7.3,16.6-11.1C145.9,168.9,146.9,168.9,148.2,171z"/>
	<path class="st0" d="M316.2,82.2c2.3,6.4,8.1,10.5,15.7,10.5c1.9,0.1,4.4-0.3,6.5-1.7c9.3-6.2,18.8-12.2,27.7-18.9
		c6.5-4.8,7.4-14.1,2.9-20.8c-4.5-6.9-13.7-9.6-20.7-5.3c-9.4,5.7-18.5,12-27.3,18.5C315.6,68.5,313.9,76,316.2,82.2z"/>
	<path class="st0" d="M332.7,122.1c-1.5,6.5,1,13,6.3,16.8c3.9,2.8,8.3,3.3,12.9,2.9c9-0.7,18-1.4,26.9-2.1
		c8.7-0.7,15.2-7.9,15-16.4c-0.2-8.7-7.5-15.9-16.4-15.6c-10.3,0.4-20.7,1.2-31,2.3C339.6,110.8,334.1,115.9,332.7,122.1z"/>
</g>
</svg>
