<?xml version="1.0" encoding="utf-8"?>
<!-- Generator: Adobe Illustrator 25.2.0, SVG Export Plug-In . SVG Version: 6.00 Build 0)  -->
<svg version="1.1" id="Capa_1" xmlns="http://www.w3.org/2000/svg" xmlns:xlink="http://www.w3.org/1999/xlink" x="0px" y="0px"
	 viewBox="0 0 512 512" style="enable-background:new 0 0 512 512;" xml:space="preserve">
<style type="text/css">
	.st0{fill:#010000;}
</style>
<g>
	<path d="M301.6,9.7c2.1,3.7,6.2,7.5,6.1,11.2c-0.7,20.5,11.2,22.8,27.7,21.9c18-1,36.2-0.7,54.3-0.1c17.8,0.6,32.8-0.7,46.6-16.1
		c14.9-16.8,41.6-12.8,56.7,4.2c14.3,16.2,13.6,40.3-1.7,56.1c-16.2,16.6-42.1,19.2-56.7,1.5c-16.6-20.2-35.8-14.1-59.1-13.8
		c17.8,16,34.3,28,47.3,43.8c23.1,28,39.4,59.1,48.1,94.2c2.5,9.9,6.9,14.1,17.2,18.4c29.7,12.5,12.3,40,15.1,60.9
		c2,15.2-9.8,19.6-23.6,19.1c-11.8-0.4-23.7-0.5-35.6,0c-14.8,0.6-22.3-6.2-22.6-20.9c-0.2-13.7-0.3-27.5,0.1-41.2
		c0.2-8.7,3.4-16.7,13-18.1c10.3-1.5,10.1-7.3,8-14.6c-18.1-62.5-55.8-107.9-116.3-133.4c-9.6-4.1-16.9-4.7-17.7,9.1
		c-0.6,10.6-7.7,15.4-17.7,15.5c-20.6,0.2-41.2,0.2-61.8,0c-10.7-0.1-18.1-4.7-18.3-16.7c-0.2-10.3-4.3-13.2-14.2-9.2
		c-62.6,24.9-101.1,71-119.4,135c-1.5,5.2-4.1,11.8,4.5,13.3c14,2.6,15.4,12.6,15,23.9c0,1.2,0,2.5,0,3.7c0.4,56-9.8,64.2-65.9,53.3
		c-10.6-2.1-14.6-8.9-14.8-18.5c-0.3-14.4-0.3-28.7,0-43.1c0.2-10.7,5.1-18.2,16.6-18.8c7.9-0.5,12.7-3.4,14.5-11.5
		c13.7-59,46.4-105.6,94.1-143.3c-23.4,0.4-47.1-9.9-67.8,13.7c-15.1,17.1-40.8,12.8-56.5-4.6C1.9,67.8,3,43.1,19.6,27.2
		c16-15.4,42.5-16.3,57,1C86.9,40.5,98,43.1,112.4,42.8c25.6-0.6,51.2-0.7,76.8,0c14,0.4,23.3-1.9,21.9-19
		c-0.4-4.6,2.8-9.4,4.3-14.1C244.1,9.7,272.8,9.7,301.6,9.7z"/>
	<path d="M260.2,459.8c-18.7,0-37.5-0.3-56.2,0.1c-11.6,0.2-18.4-4.6-22.5-15.5c-8.9-23.3-18.2-46.5-28.3-69.4
		c-4.5-10.3-3.3-18.7,1.8-28.3c29.5-55.1,56.5-111.4,74.6-171.4c2.3-7.7,5.3-14,15.4-12.5c9,1.3,11.2,7.5,11.1,14.7
		c-0.5,51.2-1.3,102.4-1.9,153.5c-0.1,6.2-4,10.2-7.2,14.8c-5.6,7.9-4.5,15.3,2.6,21.7c6,5.3,12.5,5.6,18.7,0.7c7.7-6,9.1-15,3-21.4
		c-9.5-10-8.5-21.5-8.5-33.2c0-43.7,0.1-87.4,0.2-131.1c0-8.2-0.9-16.8,10.7-18.4c11.5-1.6,15.3,5.3,17.9,14.6
		c16.8,59.9,42.3,116,72.7,170.1c4.2,7.5,6,14.4,2.5,22.9c-10.2,24.8-20.1,49.8-29.4,75c-3.8,10.4-10,14.6-21,14.2
		c-18.7-0.6-37.5-0.2-56.2-0.2C260.2,460.4,260.2,460.1,260.2,459.8z"/>
	<path d="M257.1,502.2c-18.1,0-36.2-0.2-54.4,0.1c-10.1,0.2-14.6-4-14.8-14.4c-0.3-10.8,3.4-16.7,14.7-16.7c36.9,0,73.7,0,110.6-0.1
		c10.5,0,16,4.1,15.9,15.7c-0.1,11.2-4.6,15.7-15.7,15.5C294.6,501.9,275.8,502.2,257.1,502.2z"/>
</g>
</svg>
