<?xml version="1.0" encoding="utf-8"?>
<!-- Generator: Adobe Illustrator 25.2.0, SVG Export Plug-In . SVG Version: 6.00 Build 0)  -->
<svg version="1.1" id="Capa_1" xmlns="http://www.w3.org/2000/svg" xmlns:xlink="http://www.w3.org/1999/xlink" x="0px" y="0px"
	 viewBox="0 0 499.3 496.3" style="enable-background:new 0 0 499.3 496.3;" xml:space="preserve">
<style type="text/css">
	.st0{fill:#010000;}
</style>
<g>
	<path class="st0" d="M335.6,30.7c2.5-1.6,4.5-3.6,6.1-6.1c9.5-7.5,16.1-18.1,27-24c13.6-2.8,22.9,4.4,31.5,13.5
		c4.6,5.4,9.5,10.4,15,15c4.6,5.5,9.6,10.5,15.1,15.1c4.6,5.4,9.6,10.4,15,15c4.6,5.5,9.6,10.5,15.1,15.1c4.6,5.4,9.5,10.4,15,15
		c4.6,5.5,9.6,10.5,15.1,15.1c3.7,4.4,7.3,8.9,7.9,14.9c2,6.9,0.4,13.4-4.4,18.3c-33.1,33.3-66.4,66.5-99.6,99.7
		c-2.1,2.1-3.8,3-6.2,0.8c-5.5-5.5-11-11-16.5-16.5c-2.2-4.6-8.5-6-9-11.9c2.9-2.1,5.4-4.5,7.4-7.5c8-7.1,15.6-14.6,22.7-22.7
		c2.9-2,5.4-4.5,7.5-7.5c8-7.1,15.6-14.6,22.7-22.7c2.9-2,5.4-4.5,7.5-7.5c7-6.8,13.9-13.5,20.9-20.3c1.2-1.2,2.9-2.5,0.2-4
		c-6.5-6.5-13-13-19.5-19.5c-3.5-3.5-7.1-7.1-10.6-10.6c-6.6-7.4-13.5-14.6-21.1-20.9c-0.5-0.5-1-1-1.5-1.5c-0.5-0.5-1-1-1.5-1.5
		c-0.5-0.5-1-1-1.5-1.5c-0.5-0.5-1-1-1.5-1.5c-0.5-0.5-1-1-1.5-1.5c-3.7-4-7.3-8-11.3-12.3c-4,4.3-7.7,8.3-11.4,12.2
		c-6.5,6.2-12.9,12.3-20.1,19.2c7.5,7.2,14.5,14.2,21.8,20.9c4.6,4.2,6.9,9.4,7.3,15.5c-1.8,6.5-5.7,11.2-12.2,13.7
		c-6.4,1-11.4-1.2-15.9-6.1c-6.2-6.8-13-13.2-19.6-19.7c-1.8-1.8-3.3-3.9-6-1c-4.6,4.9-9.5,9.6-14.3,14.4c-1.2,1.2-1.8,2.4,0.2,3.5
		c2.2,2.3,4.4,4.6,6.4,7c6.7,8,17.2,13.1,19.2,24.7c-5.5,16-12.3,19.9-25.3,14.7c-7-5.1-10.9-13.3-18.1-18.1c-4-4-8-8-11.9-12
		c-3.7-7.8-10.9-12.3-16.7-18.1c-5.7-4.8-5.2-8.9,0.6-13.5c4.8-3.9,8.7-8.8,13-13.3c0.5-0.5,1-1,1.5-1.5
		c9.6-10.1,19.1-20.2,28.7-30.3c0.5-0.5,0.9-0.9,1.4-1.4C319.8,49.9,326.8,39.5,335.6,30.7z"/>
	<path class="st0" d="M127.5,21.6c2.6,3.5,5.7,6.5,9.1,9.1c7,7,14,14,21,21c2.6,3.5,5.6,6.5,9.1,9.1c7,7,14,14,21,21
		c2.6,3.5,5.6,6.5,9.1,9.1c7,7,14,14,21,21c2.6,3.5,5.6,6.5,9.1,9.1c7,7,14,14,21,21c2.6,3.5,5.6,6.5,9.1,9.1c7,7,14,14,21,21
		c2.6,3.5,5.6,6.5,9.1,9.1c7,7,14,14,21,21c2.6,3.5,5.6,6.5,9.1,9.1c7,7,14,14,21,21c2.6,3.5,5.6,6.5,9.1,9.1c7,7,14,14,21,21
		c2.6,3.5,5.6,6.5,9.1,9.1c7,7,14,14,21,21c2.6,3.5,5.6,6.5,9.1,9.1c7,7,14,14,21,21c2.1,2.9,4.6,5.5,7.6,7.5
		c3.4,3.6,6.9,7.1,10.2,10.8c2.3,2.5,3.8,4-1.3,6.1c-10.6,4.4-21.8,7.2-32.4,11.5c-1.8,0.7-4.3,0.6-4.7,2.9
		c-2,10.8-6.6,20.9-7.8,31.9c-2.1,1.1-2.1,3.9-5.1,4.7c-8.4,2.2-16.6,5.1-24.9,7.7c-9.3,0.5-12,7.1-13.3,14.8
		c-3.3,7-5.8,14.3-8.2,21.7c-0.9,2.7-1.9,7.6-6.9,3.8c-0.1-0.2-0.1-0.5-0.3-0.7c-77.9-77.2-154.3-155.9-233.3-232
		C74.8,181.1,42.5,147.8,9.7,115c-1.7-1.7-2.6-3.4-2.5-5.9c0.2-6.7-0.5-13.4,1.3-19.9c0.1-1.4,0.2-2.9,0.4-4.3
		c2.9-8.8,6.1-17.5,10.1-25.8c10.6-17.3,25.1-30.4,43.2-39.4c2.4-1.2,4.6-2.7,6.8-4c10.5-2.7,21.1-5.3,31.6-8
		C113.5,4.7,119.7,14.7,127.5,21.6z"/>
	<path class="st0" d="M209.2,360.4c2-0.2,3.8,0,5.5,1.6c8.4,8.6,16.9,17,25.3,25.6c0.6,0.6,0.4,1.8,0.6,2.8c-1.8,1.7-3.8,3.2-5.5,5
		c-30.2,30.1-60.4,60.3-90.4,90.5c-4.8,4.9-10.1,8.6-16.8,10.2c-11.7,1.8-19.6-4.7-27-12.4c-0.6-1.5-1.6-2.4-3.1-3
		C88.6,470.6,79.1,461.1,69,452c-0.5-0.5-0.9-0.9-1.4-1.4c-9.1-10.1-18.6-19.6-28.7-28.7c-0.5-0.5-0.9-0.9-1.4-1.4
		c-9.1-10.1-18.6-19.6-28.7-28.7c-0.5-1.5-1.5-2.5-3-3.1c-6.5-7.5-6.8-16.1-4.5-25.2c3-3.6,6.1-7.1,9.1-10.7c7-7,14-14,21-21
		c3-2.5,6.1-5.1,9.1-7.6c7.5-7.5,15-15,22.5-22.5c3-2.1,5.5-4.6,7.6-7.6c8.9-6.5,16.8-14.2,24-22.5c2.5-1.6,4.5-3.6,6.1-6.1
		c0.4-0.3,0.9-0.5,1.2-0.8c9.4-8.8,9.3-8.7,18.5,0.3c13.2,12.9,26.4,25.8,39.9,38.4c9.8,9.1,9.8,15.3,3.3,25.2
		c-2,1.5-4.1,3.1-6.1,4.6c-5.6,0.2-11.4,0.9-16.2-3c-3.6-4.5-7.6-8.5-12.1-12.1c-3.7-3.9-7.4-7.9-11.6-12.3
		c-4.7,4.9-8.6,9.9-13.4,13.8c-5.4,4.4-5.2,7.5,0.7,10.7c4.7,4.8,8.9,10.1,14.1,14.4c6.9,5.8,10.2,12.6,8.5,21.6
		c-5.6,9.9-17,13.8-28.4,3.1c-0.5-0.5-1-1-1.5-1.5c-0.5-0.5-1-1-1.5-1.5c-0.5-0.5-1-1-1.5-1.5c-0.5-0.5-1-1-1.5-1.5
		c-0.5-0.5-1-1-1.5-1.5c-0.5-0.5-1-1-1.5-1.5c-2.7-2.9-5.6-5.7-8-8.8c-2.9-3.8-5.1-3.4-8.2,0c-7.4,7.8-15,15.4-22.8,22.8
		c-2.8,2.7-3.8,4.4-0.4,7.7c22.9,22.7,45.7,45.6,68.8,68.8c3.4-3.7,6.7-7.1,9.9-10.5c7-6.1,13.5-12.6,19.6-19.6
		c3.9-3,7.4-6.5,10.5-10.5c7-6.1,13.5-12.6,19.6-19.6c3.9-3,7.4-6.5,10.5-10.5C196.5,373.9,203,367.3,209.2,360.4z"/>
	<path class="st0" d="M433.5,416.1c8.6-5,17.7-8.7,26.9-12.4c4.5,4.7,3.7,11.8,7.4,16.8c0.1,1,0.3,2,0.4,3c-0.3,1,0.3,1.4,1.1,1.7
		c2.6,8.5,5.3,16.9,7.9,25.4c1.5,5.1,2.8,10.2,4.4,15.3c2.5,8.4-1,13-9.7,13.5c-4,0.2-7.5-2.8-11.6-1.3c-8.6-3.4-17.7-5.2-26.9-6.4
		c-4.5-3.3-10.2-2.7-15.2-4.1c-12.9-3.8-13-3.4-10.4-16.8c4.6-10.4,9.5-20.6,18-28.5C428.5,420.1,431,418.1,433.5,416.1z"/>
</g>
</svg>
