<svg id="Layer_1" data-name="Layer 1" xmlns="http://www.w3.org/2000/svg" viewBox="0 0 1655.84 1745.6"><defs><style>.cls-1{fill:#010000;}</style></defs><path class="cls-1" d="M966.22,193.8c27.5,13.08,58.34,2.11,73-26.91,14.56-28.77,28.52-57.86,42.12-87.1,12.92-27.8,5.42-53.67-19.47-71.71-2.43-1.77-10.39-.94-5.52-8.08h-44.32a9.17,9.17,0,0,1,1.28,1.12c.24.31.48,1.08.39,1.13-12.87,8.38-24.59,17.5-31.37,32.2-13,28.26-27.26,56-40.47,84.14C927.85,148.53,938.48,180.6,966.22,193.8Z"/><path class="cls-1" d="M1655.28,327.7c-.17-79.1-57.71-136-136.66-137.79-36.35-.83-72.72-.24-109.08-.15-7.37,0-14.68.61-21.76,3.3-23.78,9-37.69,32.24-34.68,58.25,2.76,23.87,22.38,44.59,47.6,45.85,35.13,1.77,70.4.94,105.61,1.12,32.73.17,40.57,7.74,40.56,39.86q-.06,384.35.2,768.69c0,15.15-3.88,18.68-18.78,18.63q-278.67-.86-557.33-.41c-6.81,0-13.61.4-20.41.62-6.8-.16-13.61-.44-20.41-.45q-398.52-.1-797-.16c-23.8,0-23.8,0-23.81-24.62q-.09-336.37-.2-672.73c0-7.36-.4-14.73-.61-22.1.29-13.59.77-27.18.84-40.77.23-45.94,20.36-66.09,66.61-66.13q128.52-.13,257.05-.1c10.79,0,21.57,0,31.86-4,23.52-9.17,38.44-34.49,34.38-58.42-4.54-26.78-25-45.91-52.78-46.44-46.51-.89-93.06-.52-139.58-.36-52.77.17-105.63-1.22-158.26,1.56C80.31,194.54,14.78,254.23,6.11,316.88.77,331.51.31,346.82.3,362.09q-.21,436.2-.3,872.4c0,14.82,1.08,29.57,4.44,44,18,77.22,83.55,129.25,164.29,129.47,134,.37,268.08.06,402.11.06,7.6,0,15.48-2.43,15.58,10.87.53,71-10.57,139.72-35.53,206.25-3.31,8.82-8,11.75-17.53,11.59-36.91-.61-73.83-.46-110.75-.18-26.2.19-47.32,15.6-54.11,38.66-7,23.7,2,46.91,23.72,62.44,2.59,1.85,10,.9,6.16,8h859.15a9.08,9.08,0,0,1-1.39-1c-.3-.28-.69-1-.6-1.07a43.84,43.84,0,0,1,4.9-4.46c25.08-17.83,34.17-39.51,26.72-63.92s-29-38.54-59.41-38.6c-34.63-.06-69.26-.48-103.87.24-10.74.23-16.15-3-20-13.13-24.82-65.65-39.32-133.06-38-203.63.22-11.61,5.13-12.39,14.32-12.35,43.13.18,86.26-.19,129.39-.36,92,.21,184,.12,276,.73s169.72-70.31,169.85-166.83Q1656.18,784.47,1655.28,327.7ZM663.45,1635.82c14.67-50.69,26.81-100.89,29.73-152.74,1.18-20.94,2-41.94,1.74-62.9-.1-9.67,2.63-12.48,12.34-12.44,79.43.34,158.88.19,238.32.12,6.5,0,12.2-.58,11.95,9.21-1.89,74.38,10.87,146.6,34.2,218.75Zm882.07-384c-6.21,29.1-28,46.89-60.1,46.92q-173.7.18-347.4,0c-6.79,0-13.59.43-20.38.66-.09,6.2,3,10.59,6.7,14.61-3.74-4-6.79-8.41-6.7-14.61-6.8-.16-13.61-.47-20.41-.47q-461.62-.13-923.23-.22c-34.63,0-56.14-16-63.16-45.24-3.41-14.19-1.72-19.7,15.38-19.67q449.7.73,899.39.21c6.8,0,13.61-.29,20.41-.44,68.1.2,136.21.52,204.31.59,93.66.09,187.32.33,281-.35C1546.48,1233.76,1548.24,1239.08,1545.52,1251.84Z"/><path class="cls-1" d="M353.34,538.32c-79.19,45.78-106.48,141-60.74,216.78a1094.64,1094.64,0,0,0,63.83,94.32c46.12,61,128.56,77,195.93,41.24,27-14.35,49.88-35,77.69-47.85,49.26,42.82,98.3,85.92,148,128.28,12.69,10.82,28.64,13.64,45,9.15,20.84-5.7,34.58-18.91,39.74-40.2,5.34-22.08-1.69-40.45-18.35-55q-55.17-48.24-110.95-95.76c-7.9-6.72-10.67-10.64.94-16.23s21.8-13.51,33.2-19.29c96.57-49,199-75.18,307.29-77.77,23.54-.56,42.15-8.54,53.3-29.93,11.23-21.57,6.38-41.45-6.75-60.75Q971.08,364.15,821.1,142.72C808,123.42,791.47,111,767.46,113.06c-24.66,2.07-39.44,17.1-48.86,39.3C666.05,276.13,583.68,375.93,474.47,453.81,434.39,482.4,393.74,510.18,353.34,538.32Zm242.27-41.18c47.4-40.63,90.53-85.05,127.32-136.08,19.43-26.95,37.45-54.76,55.52-82.33,5.93,1.94,7.43,6.61,9.89,10.23C849.57,379,910.51,469.31,972.09,559.14c8.88,13,6.77,15.38-8.18,17.65-89.84,13.65-174.65,43-254.75,85.64-10.93,5.83-15.77,4.92-22.65-5.52q-45.9-69.6-93.65-138C586.37,509.59,586.71,504.78,595.61,497.14ZM502.72,579.8q46.69,69.69,94.17,138.85c4.55,6.64,4.11,10.37-2.77,14.82-12.29,7.94-24,16.75-36,25.2-16.53,10.93-32.9,22.13-49.64,32.75-26.22,16.64-51.74,11.89-69.66-13.43q-25.51-36.09-49.66-73.14C373,679.93,378.07,653.64,401.8,636c9.81-7.29,19.95-14.13,29.94-21.18h0c18.82-12.44,37.84-24.59,56.33-37.49C494.65,572.73,498.07,572.85,502.72,579.8Z"/><path class="cls-1" d="M1072.27,278.72c7.93,21.75,27.63,35.54,53.16,35.58,6.33.27,15-.89,22.18-5.62,31.61-20.95,63.65-41.36,94-64,22-16.43,25-47.74,9.93-70.52-15.35-23.27-46.31-32.47-70.23-17.83-31.78,19.45-62.57,40.67-92.72,62.59C1070.1,232.32,1064.56,257.57,1072.27,278.72Z"/><path class="cls-1" d="M1128.36,414.16a54.94,54.94,0,0,0,21.4,57c13.25,9.62,28.08,11.2,43.73,9.9,30.44-2.37,60.89-4.58,91.31-7.16,29.6-2.51,51.7-26.85,50.89-55.58-.82-29.43-25.33-54-55.45-52.82-35.06,1.33-70.13,4.05-105,7.69C1151.48,375.69,1133.08,393.15,1128.36,414.16Z"/></svg>