<svg id="Layer_1" data-name="Layer 1" xmlns="http://www.w3.org/2000/svg" viewBox="0 0 1552.55 1531.7"><path d="M918,0c6.63,11.62,19.27,23.45,18.89,34.84-2.12,63.64,34.81,71,86.11,68.09,56.12-3.17,112.62-2.26,168.85-.28,55.29,1.95,102.13-2.09,144.85-50.11C1383.08.4,1465.9,12.63,1512.9,65.68c44.6,50.33,42.26,125.41-5.44,174.32-50.25,51.53-131,59.7-176.16,4.6-51.59-62.94-111.19-43.89-183.89-43,55.31,49.82,106.58,87.08,147.18,136.33,71.72,87,122.66,183.87,149.6,293,7.63,30.9,21.48,43.94,53.43,57.37C1590,727.09,1536,812.76,1544.55,877.6c6.27,47.24-30.49,61-73.41,59.36-36.83-1.38-73.81-1.46-110.64,0-46,1.78-69.49-19.28-70.14-64.87-.62-42.7-.79-85.43.41-128.1.76-27.05,10.71-52.05,40.43-56.38,32.06-4.67,31.52-22.59,24.92-45.41C1300,447.84,1182.59,306.79,994.58,227.26c-30-12.69-52.47-14.57-55,28.18-1.94,32.9-23.83,47.75-54.94,48.09q-96.07,1.07-192.16-.07c-33.21-.44-56.44-14.74-57-51.79-.51-32.18-13.28-41-44.14-28.75C396.79,300.41,277.12,443.74,220.18,642.6c-4.66,16.29-12.89,36.55,14,41.5,43.6,8,48,39,46.65,74.42-.14,3.88,0,7.77,0,11.65,1.3,174.27-30.32,199.58-204.82,165.73-33-6.41-45.36-27.56-46-57.61-1-44.62-.91-89.29-.13-133.93.57-33.35,15.8-56.47,51.46-58.52,24.61-1.41,39.37-10.52,45.21-35.71,42.57-183.58,144.36-328.2,292.65-445.65-72.78,1.16-146.44-30.67-210.83,42.46C161.52,300.2,81.69,286.78,32.85,232.55c-46.78-52-43.22-128.62,8.27-178.14C90.82,6.62,173.31,3.69,218.47,57.58c32.07,38.27,66.45,46.33,111.31,45.2,79.54-2,159.22-2.16,238.76,0,43.45,1.21,72.48-5.9,68-59C635.39,29.71,645.13,14.64,649.85,0Z"/><path d="M789.23,1399.57c-58.25,0-116.52-.86-174.75.31-36,.73-57.17-14.36-70.1-48.24C516.71,1279.12,487.8,1207,456.51,1136c-14.11-32-10.17-58.27,5.67-87.91,91.62-171.4,175.63-346.24,231.93-533,7.18-23.84,16.49-43.46,47.77-38.95,27.87,4,34.76,23.36,34.55,45.8-1.51,159.14-4,318.28-5.85,477.43-.22,19.43-12.41,31.71-22.45,45.87-17.4,24.53-14,47.49,8.07,67.33,18.51,16.62,38.93,17.35,58.24,2.14,23.86-18.79,28.32-46.59,9.34-66.63-29.58-31.24-26.45-66.81-26.43-103.32q.1-203.89.51-407.79c0-25.35-2.72-52.11,33.39-57.18,35.68-5,47.47,16.52,55.57,45.47C938.92,711.34,1018.33,886,1112.91,1054c13.19,23.43,18.65,44.8,7.76,71.3-31.72,77.19-62.5,154.81-91.44,233.08-11.93,32.26-31,45.36-65.25,44.29-58.2-1.82-116.5-.5-174.75-.5Z"/><path d="M779.57,1531.3c-56.35,0-112.7-.66-169,.22-31.49.49-45.33-12.37-46.09-44.71-.8-33.47,10.42-51.91,45.69-51.9q171.93.08,343.86-.19c32.57,0,49.76,12.72,49.33,48.77-.41,35-14.42,48.91-48.92,48.18C896.15,1530.44,837.85,1531.33,779.57,1531.3Z"/></svg>